<svg xmlns="http://www.w3.org/2000/svg" width="48" height="48" viewBox="0 0 48 48" fill="none">
  <defs>
    <linearGradient id="die" x1="6" y1="4" x2="42" y2="44" gradientUnits="userSpaceOnUse">
      <stop offset="0" stop-color="#4f90f8" />
      <stop offset="0.5" stop-color="#2563eb" />
      <stop offset="1" stop-color="#1a317d" />
    </linearGradient>
    <radialGradient id="pip" cx="0.35" cy="0.3" r="0.8">
      <stop offset="0" stop-color="#fde68a" />
      <stop offset="1" stop-color="#f59e0b" />
    </radialGradient>
  </defs>
  <rect x="4" y="4" width="40" height="40" rx="12" fill="url(#die)" />
  <rect x="4" y="4" width="40" height="40" rx="12" fill="url(#die)" />
  <path d="M4 16C4 9.373 9.373 4 16 4h16c6.627 0 12 5.373 12 12v4C44 13.373 38.627 8 32 8H16C9.373 8 4 13.373 4 20v-4z" fill="#ffffff" fill-opacity="0.22" />
  <g fill="url(#pip)">
    <circle cx="15" cy="15" r="3.6" />
    <circle cx="33" cy="15" r="3.6" />
    <circle cx="24" cy="24" r="3.6" />
    <circle cx="15" cy="33" r="3.6" />
    <circle cx="33" cy="33" r="3.6" />
  </g>
</svg>
