<svg xmlns="http://www.w3.org/2000/svg" width="48" height="48" viewBox="0 0 48 48" fill="none">
  <defs>
    <linearGradient id="card" x1="6" y1="4" x2="42" y2="44" gradientUnits="userSpaceOnUse">
      <stop offset="0" stop-color="#1e5b3d" />
      <stop offset="0.55" stop-color="#114231" />
      <stop offset="1" stop-color="#0a2419" />
    </linearGradient>
    <linearGradient id="spade" x1="16" y1="12" x2="32" y2="38" gradientUnits="userSpaceOnUse">
      <stop offset="0" stop-color="#f8f4ea" />
      <stop offset="1" stop-color="#e7dcc4" />
    </linearGradient>
  </defs>
  <rect x="4.6" y="4.6" width="38.8" height="38.8" rx="11" fill="url(#card)" stroke="#bb8f3c" stroke-width="1.4" />
  <path d="M5 16C5 10 10 5 16 5h16c6 0 11 5 11 11v3C43 13.5 38.5 9 33 9H15C9.5 9 5 13.5 5 19v-3z" fill="#ffffff" fill-opacity="0.16" />
  <g transform="translate(12 11)" fill="url(#spade)">
    <path d="M12 2 C12 2 5 8.5 5 13.5 c0 2.5 2 4.5 4.5 4.5 1 0 1.9 -.3 2.6 -.9 -.2 2.2 -1.3 3.9 -3.1 4.9 h6 c-1.8 -1 -2.9 -2.7 -3.1 -4.9 .7 .6 1.6 .9 2.6 .9 2.5 0 4.5 -2 4.5 -4.5 C19 8.5 12 2 12 2 Z" />
  </g>
  <text x="9" y="16.5" fill="#e7cd86" font-family="Georgia, 'Times New Roman', serif" font-weight="700" font-size="9">A</text>
</svg>
