<svg xmlns="http://www.w3.org/2000/svg" width="48" height="48" viewBox="0 0 48 48" fill="none">
  <defs>
    <linearGradient id="card" x1="6" y1="4" x2="42" y2="44" gradientUnits="userSpaceOnUse">
      <stop offset="0" stop-color="#4f90f8" />
      <stop offset="0.5" stop-color="#2563eb" />
      <stop offset="1" stop-color="#1a317d" />
    </linearGradient>
    <linearGradient id="spade" x1="16" y1="12" x2="32" y2="38" gradientUnits="userSpaceOnUse">
      <stop offset="0" stop-color="#ffffff" />
      <stop offset="1" stop-color="#e6eefc" />
    </linearGradient>
  </defs>
  <rect x="4" y="4" width="40" height="40" rx="12" fill="url(#card)" />
  <path d="M4 16C4 9.373 9.373 4 16 4h16c6.627 0 12 5.373 12 12v4C44 13.373 38.627 8 32 8H16C9.373 8 4 13.373 4 20v-4z" fill="#ffffff" fill-opacity="0.22" />
  <g transform="translate(12 11)" fill="url(#spade)">
    <path d="M12 2 C12 2 5 8.5 5 13.5 c0 2.5 2 4.5 4.5 4.5 1 0 1.9 -.3 2.6 -.9 -.2 2.2 -1.3 3.9 -3.1 4.9 h6 c-1.8 -1 -2.9 -2.7 -3.1 -4.9 .7 .6 1.6 .9 2.6 .9 2.5 0 4.5 -2 4.5 -4.5 C19 8.5 12 2 12 2 Z" />
  </g>
</svg>
